<svg xmlns="http://www.w3.org/2000/svg" xmlns:xlink="http://www.w3.org/1999/xlink" width="27" height="36" viewBox="0 0 27 36">
  <metadata><?xpacket begin="﻿" id="W5M0MpCehiHzreSzNTczkc9d"?>
<x:xmpmeta xmlns:x="adobe:ns:meta/" x:xmptk="Adobe XMP Core 5.6-c138 79.159824, 2016/09/14-01:09:01        ">
   <rdf:RDF xmlns:rdf="http://www.w3.org/1999/02/22-rdf-syntax-ns#">
      <rdf:Description rdf:about=""/>
   </rdf:RDF>
</x:xmpmeta>
                                                                                                    
                                                                                                    
                                                                                                    
                                                                                                    
                                                                                                    
                                                                                                    
                                                                                                    
                                                                                                    
                                                                                                    
                                                                                                    
                                                                                                    
                                                                                                    
                                                                                                    
                                                                                                    
                                                                                                    
                                                                                                    
                                                                                                    
                                                                                                    
                                                                                                    
                                                                                                    
                           
<?xpacket end="w"?></metadata>
<defs>
    <style>
      .cls-1, .cls-2 {
        fill: #9b9b9b;
        fill-rule: evenodd;
      }

      .cls-1 {
        filter: url(#filter);
      }

      .cls-2 {
        filter: url(#filter-2);
      }
    </style>
    <filter id="filter" x="0" y="4.5" width="27" height="27" filterUnits="userSpaceOnUse">
      <feFlood result="flood"/>
      <feComposite result="composite" operator="in" in2="SourceGraphic"/>
      <feBlend result="blend" in2="SourceGraphic"/>
    </filter>
    <filter id="filter-2" x="9" y="9.031" width="9" height="17.938" filterUnits="userSpaceOnUse">
      <feFlood result="flood"/>
      <feComposite result="composite" operator="in" in2="SourceGraphic"/>
      <feBlend result="blend" in2="SourceGraphic"/>
    </filter>
  </defs>
  <path id="Ellipse_1_copy" data-name="Ellipse 1 copy" class="cls-1" d="M13.5,4.5A13.5,13.5,0,1,1,0,18,13.5,13.5,0,0,1,13.5,4.5Zm0,2.25A11.25,11.25,0,1,1,2.25,18,11.25,11.25,0,0,1,13.5,6.75Z"/>
  <path class="cls-2" d="M12.424,16.616c0.191-.493-0.054-0.739-0.272-0.739-1.008,0-2.315,2.384-2.8,2.384A0.382,0.382,0,0,1,8.993,17.9c0-.494,1.2-1.644,1.552-2a6.024,6.024,0,0,1,4.084-1.836c1.171,0,2.424.712,1.443,3.371l-1.961,5.344a5.25,5.25,0,0,0-.462,1.535,0.346,0.346,0,0,0,.326.384c0.817,0,2.315-2.33,2.7-2.33a0.4,0.4,0,0,1,.326.411c0,0.795-3.185,4.193-5.936,4.193A1.441,1.441,0,0,1,9.4,25.469a13.989,13.989,0,0,1,1.117-4.029Zm1.47-5.4a2.239,2.239,0,0,1,2.233-2.192,1.785,1.785,0,0,1,1.879,1.863,2.21,2.21,0,0,1-2.26,2.193A1.75,1.75,0,0,1,13.894,11.217Z"/>
</svg>
