<svg xmlns="http://www.w3.org/2000/svg" xmlns:xlink="http://www.w3.org/1999/xlink" width="27" height="36" viewBox="0 0 27 36">
  <metadata><?xpacket begin="﻿" id="W5M0MpCehiHzreSzNTczkc9d"?>
<x:xmpmeta xmlns:x="adobe:ns:meta/" x:xmptk="Adobe XMP Core 5.6-c138 79.159824, 2016/09/14-01:09:01        ">
   <rdf:RDF xmlns:rdf="http://www.w3.org/1999/02/22-rdf-syntax-ns#">
      <rdf:Description rdf:about=""/>
   </rdf:RDF>
</x:xmpmeta>
                                                                                                    
                                                                                                    
                                                                                                    
                                                                                                    
                                                                                                    
                                                                                                    
                                                                                                    
                                                                                                    
                                                                                                    
                                                                                                    
                                                                                                    
                                                                                                    
                                                                                                    
                                                                                                    
                                                                                                    
                                                                                                    
                                                                                                    
                                                                                                    
                                                                                                    
                                                                                                    
                           
<?xpacket end="w"?></metadata>
<defs>
    <style>
      .cls-1 {
        fill: #9b9b9b;
        fill-rule: evenodd;
        filter: url(#filter);
      }
    </style>
    <filter id="filter" x="0" y="4.5" width="27" height="27" filterUnits="userSpaceOnUse">
      <feFlood result="flood"/>
      <feComposite result="composite" operator="in" in2="SourceGraphic"/>
      <feBlend result="blend" in2="SourceGraphic"/>
    </filter>
  </defs>
  <path id="Settings" class="cls-1" d="M27,17.069v1.862l-2.592,1.152a11.018,11.018,0,0,1-.42,1.568l1.668,2.293-0.931,1.613-2.823-.3A11.166,11.166,0,0,1,20.758,26.4l0.3,2.823-1.613.931-2.293-1.668a11.02,11.02,0,0,1-1.568.42L14.431,31.5H12.569l-1.152-2.592a11.017,11.017,0,0,1-1.568-.419L7.556,30.157l-1.613-.931,0.3-2.823A11.176,11.176,0,0,1,5.1,25.258l-2.822.3L1.343,23.944l1.668-2.293a11.023,11.023,0,0,1-.42-1.568L0,18.931V17.069l2.591-1.152a11.039,11.039,0,0,1,.42-1.569L1.343,12.056l0.931-1.613,2.824,0.3A11.166,11.166,0,0,1,6.242,9.6l-0.3-2.823,1.613-.931L9.849,7.511a11.025,11.025,0,0,1,1.568-.42L12.569,4.5h1.862l1.152,2.592a11.026,11.026,0,0,1,1.568.42l2.293-1.668,1.613,0.931L20.758,9.6A11.163,11.163,0,0,1,21.9,10.742l2.824-.3,0.931,1.613-1.668,2.292a11.039,11.039,0,0,1,.42,1.569Zm-6.161-2.791-3,.79a5.371,5.371,0,0,0-.682-0.835,5.277,5.277,0,0,0-6.086-.995l-2.23-2.23A8.341,8.341,0,0,1,20.839,14.278Zm0.869,3.208A8.18,8.18,0,0,1,12.818,26.2l0.789-2.992a5.154,5.154,0,0,0,5.084-4.927ZM9.732,21.657a5.325,5.325,0,0,0,.7.57l-0.8,3.042a8.4,8.4,0,0,1-2.016-1.49,8.311,8.311,0,0,1-1.1-10.438l2.23,2.231A5.278,5.278,0,0,0,9.732,21.657Zm2.177-5.248a2.25,2.25,0,1,1,0,3.182A2.25,2.25,0,0,1,11.909,16.409Z"/>
</svg>
